<svg width="514" height="196" viewBox="0 0 514 196" fill="none" xmlns="http://www.w3.org/2000/svg">
<path d="M9.20668 137V39.3534H43.383L60.2619 124.445H62.7728L79.6517 39.3534H113.828V137H95.9727V52.8844H93.4618L76.7223 137H46.3124L29.573 52.8844H27.0621V137H9.20668ZM164.302 138.953C157.421 138.953 151.329 137.511 146.029 134.629C140.821 131.653 136.729 127.514 133.753 122.214C130.87 116.82 129.429 110.496 129.429 103.242V101.568C129.429 94.3145 130.87 88.0372 133.753 82.7364C136.636 77.3426 140.681 73.2042 145.889 70.3213C151.097 67.3454 157.142 65.8575 164.023 65.8575C170.812 65.8575 176.717 67.3919 181.739 70.4608C186.761 73.4367 190.667 77.6216 193.457 83.0154C196.247 88.3162 197.642 94.5005 197.642 101.568V107.567H147.284C147.47 112.309 149.237 116.169 152.585 119.145C155.933 122.121 160.025 123.608 164.86 123.608C169.789 123.608 173.416 122.539 175.741 120.4C178.066 118.261 179.833 115.89 181.042 113.286L195.41 120.819C194.108 123.236 192.201 125.887 189.691 128.77C187.273 131.56 184.018 133.978 179.926 136.024C175.834 137.976 170.626 138.953 164.302 138.953ZM147.424 94.454H179.786C179.414 90.4551 177.787 87.2467 174.904 84.8288C172.114 82.4109 168.441 81.2019 163.884 81.2019C159.141 81.2019 155.375 82.4109 152.585 84.8288C149.795 87.2467 148.074 90.4551 147.424 94.454ZM153.422 59.9987L163.744 39.3534H183.553L168.766 59.9987H153.422ZM237.474 137C232.917 137 229.197 135.605 226.315 132.815C223.525 129.932 222.13 126.119 222.13 121.377V82.3179H204.832V67.8104H222.13V46.3281H239.706V67.8104H258.677V82.3179H239.706V118.308C239.706 121.098 241.008 122.493 243.612 122.493H257.003V137H237.474ZM274.588 137V67.8104H291.885V75.6221H294.396C295.419 72.8322 297.093 70.7863 299.418 69.4843C301.836 68.1824 304.625 67.5314 307.787 67.5314H316.157V83.1549H307.508C303.045 83.1549 299.371 84.3638 296.488 86.7817C293.605 89.1067 292.164 92.7335 292.164 97.6624V137H274.588ZM329.895 137V67.8104H347.472V137H329.895ZM338.683 59.7197C335.521 59.7197 332.825 58.6967 330.593 56.6508C328.454 54.6049 327.384 51.9079 327.384 48.5601C327.384 45.2122 328.454 42.5153 330.593 40.4693C332.825 38.4234 335.521 37.4004 338.683 37.4004C341.938 37.4004 344.635 38.4234 346.774 40.4693C348.913 42.5153 349.982 45.2122 349.982 48.5601C349.982 51.9079 348.913 54.6049 346.774 56.6508C344.635 58.6967 341.938 59.7197 338.683 59.7197ZM399.451 138.953C392.755 138.953 386.664 137.558 381.177 134.768C375.783 131.978 371.505 127.933 368.344 122.632C365.182 117.331 363.601 110.914 363.601 103.382V101.429C363.601 93.896 365.182 87.4792 368.344 82.1784C371.505 76.8776 375.783 72.8322 381.177 70.0423C386.664 67.2524 392.755 65.8575 399.451 65.8575C406.054 65.8575 411.727 67.0199 416.469 69.3448C421.212 71.6698 425.025 74.8782 427.908 78.97C430.884 82.9689 432.837 87.5257 433.767 92.6405L416.748 96.2674C416.376 93.4775 415.539 90.9666 414.237 88.7347C412.935 86.5027 411.076 84.7358 408.658 83.4339C406.333 82.1319 403.403 81.4809 399.869 81.4809C396.336 81.4809 393.127 82.2714 390.244 83.8523C387.454 85.3403 385.222 87.6187 383.548 90.6876C381.968 93.6635 381.177 97.3369 381.177 101.708V103.103C381.177 107.474 381.968 111.193 383.548 114.262C385.222 117.238 387.454 119.517 390.244 121.098C393.127 122.585 396.336 123.329 399.869 123.329C405.17 123.329 409.169 121.981 411.866 119.284C414.656 116.494 416.423 112.867 417.167 108.403L434.185 112.449C432.976 117.378 430.884 121.888 427.908 125.98C425.025 129.979 421.212 133.141 416.469 135.466C411.727 137.79 406.054 138.953 399.451 138.953ZM477.42 138.953C468.399 138.953 461.006 137 455.24 133.094C449.475 129.188 445.987 123.608 444.778 116.355L460.96 112.17C461.611 115.425 462.68 117.982 464.168 119.842C465.749 121.702 467.655 123.05 469.887 123.887C472.212 124.631 474.723 125.003 477.42 125.003C481.512 125.003 484.534 124.306 486.487 122.911C488.44 121.423 489.417 119.61 489.417 117.471C489.417 115.332 488.487 113.704 486.627 112.588C484.767 111.379 481.791 110.403 477.699 109.659L473.793 108.961C468.957 108.032 464.54 106.776 460.541 105.195C456.542 103.521 453.334 101.243 450.916 98.3598C448.498 95.4769 447.289 91.7571 447.289 87.2002C447.289 80.3185 449.8 75.0641 454.822 71.4373C459.844 67.7174 466.446 65.8575 474.63 65.8575C482.349 65.8575 488.766 67.5779 493.88 71.0188C498.995 74.4597 502.343 78.97 503.924 84.5498L487.603 89.5716C486.859 86.0378 485.325 83.5269 483 82.0389C480.768 80.551 477.978 79.807 474.63 79.807C471.282 79.807 468.725 80.4115 466.958 81.6204C465.191 82.7364 464.307 84.3173 464.307 86.3633C464.307 88.5952 465.237 90.2691 467.097 91.3851C468.957 92.408 471.468 93.1985 474.63 93.7565L478.536 94.454C483.744 95.3839 488.44 96.6394 492.625 98.2203C496.903 99.7083 500.251 101.894 502.669 104.777C505.18 107.567 506.435 111.379 506.435 116.215C506.435 123.469 503.785 129.095 498.484 133.094C493.276 137 486.255 138.953 477.42 138.953Z" fill="white"/>
<rect x="4.57373" y="163.306" width="8.71844" height="95.9029" rx="4.35922" transform="rotate(-90 4.57373 163.306)" fill="#82DC73"/>
<rect x="106.769" y="163.306" width="8.71845" height="30.5146" rx="4.35922" transform="rotate(-90 106.769 163.306)" fill="#C4C4C4"/>
<rect x="143.575" y="163.306" width="8.71844" height="74.1068" rx="4.35922" transform="rotate(-90 143.575 163.306)" fill="#FF5A00"/>
<rect x="372.891" y="172.022" width="8.71845" height="93.7233" rx="4.35923" transform="rotate(90 372.891 172.022)" fill="#FF82B4"/>
<rect x="269.73" y="172.022" width="8.71845" height="98.0825" rx="4.35923" transform="rotate(90 269.73 172.022)" fill="#0055C8"/>
<rect x="505.884" y="154.587" width="8.71845" height="163.64" rx="4.35923" transform="rotate(90 505.884 154.587)" fill="#640082"/>
<rect x="438.316" y="187.281" width="8.71845" height="115.519" rx="4.35923" transform="rotate(90 438.316 187.281)" fill="#FFBE00"/>
</svg>
