<svg width="258" height="94" viewBox="0 0 258 94" fill="none" xmlns="http://www.w3.org/2000/svg">
<path d="M5.224 63V18.2H20.904L28.648 57.24H29.8L37.544 18.2H53.224V63H45.032V24.408H43.88L36.2 63H22.248L14.568 24.408H13.416V63H5.224ZM76.3815 63.896C73.2242 63.896 70.4295 63.2347 67.9975 61.912C65.6082 60.5467 63.7308 58.648 62.3655 56.216C61.0428 53.7413 60.3815 50.84 60.3815 47.512V46.744C60.3815 43.416 61.0428 40.536 62.3655 38.104C63.6882 35.6293 65.5442 33.7307 67.9335 32.408C70.3228 31.0427 73.0962 30.36 76.2535 30.36C79.3682 30.36 82.0775 31.064 84.3815 32.472C86.6855 33.8373 88.4775 35.7573 89.7575 38.232C91.0375 40.664 91.6775 43.5013 91.6775 46.744V49.496H68.5735C68.6588 51.672 69.4695 53.4427 71.0055 54.808C72.5415 56.1733 74.4188 56.856 76.6375 56.856C78.8988 56.856 80.5628 56.3653 81.6295 55.384C82.6962 54.4027 83.5068 53.3147 84.0615 52.12L90.6535 55.576C90.0562 56.6853 89.1815 57.9013 88.0295 59.224C86.9202 60.504 85.4268 61.6133 83.5495 62.552C81.6722 63.448 79.2828 63.896 76.3815 63.896ZM68.6375 43.48H83.4855C83.3148 41.6453 82.5682 40.1733 81.2455 39.064C79.9655 37.9547 78.2802 37.4 76.1895 37.4C74.0135 37.4 72.2855 37.9547 71.0055 39.064C69.7255 40.1733 68.9362 41.6453 68.6375 43.48ZM71.3895 27.672L76.1255 18.2H85.2135L78.4295 27.672H71.3895ZM109.953 63C107.862 63 106.155 62.36 104.833 61.08C103.553 59.7573 102.913 58.008 102.913 55.832V37.912H94.9765V31.256H102.913V21.4H110.977V31.256H119.681V37.912H110.977V54.424C110.977 55.704 111.574 56.344 112.769 56.344H118.913V63H109.953ZM126.98 63V31.256H134.916V34.84H136.068C136.537 33.56 137.305 32.6213 138.372 32.024C139.481 31.4267 140.761 31.128 142.212 31.128H146.052V38.296H142.084C140.036 38.296 138.351 38.8507 137.028 39.96C135.705 41.0267 135.044 42.6907 135.044 44.952V63H126.98ZM152.355 63V31.256H160.419V63H152.355ZM156.387 27.544C154.936 27.544 153.699 27.0747 152.675 26.136C151.694 25.1973 151.203 23.96 151.203 22.424C151.203 20.888 151.694 19.6507 152.675 18.712C153.699 17.7733 154.936 17.304 156.387 17.304C157.88 17.304 159.118 17.7733 160.099 18.712C161.08 19.6507 161.571 20.888 161.571 22.424C161.571 23.96 161.08 25.1973 160.099 26.136C159.118 27.0747 157.88 27.544 156.387 27.544ZM184.267 63.896C181.195 63.896 178.4 63.256 175.883 61.976C173.408 60.696 171.446 58.84 169.995 56.408C168.544 53.976 167.819 51.032 167.819 47.576V46.68C167.819 43.224 168.544 40.28 169.995 37.848C171.446 35.416 173.408 33.56 175.883 32.28C178.4 31 181.195 30.36 184.267 30.36C187.296 30.36 189.899 30.8933 192.075 31.96C194.251 33.0267 196 34.4987 197.323 36.376C198.688 38.2107 199.584 40.3013 200.011 42.648L192.203 44.312C192.032 43.032 191.648 41.88 191.051 40.856C190.454 39.832 189.6 39.0213 188.491 38.424C187.424 37.8267 186.08 37.528 184.459 37.528C182.838 37.528 181.366 37.8907 180.043 38.616C178.763 39.2987 177.739 40.344 176.971 41.752C176.246 43.1173 175.883 44.8027 175.883 46.808V47.448C175.883 49.4533 176.246 51.16 176.971 52.568C177.739 53.9333 178.763 54.9787 180.043 55.704C181.366 56.3867 182.838 56.728 184.459 56.728C186.891 56.728 188.726 56.1093 189.963 54.872C191.243 53.592 192.054 51.928 192.395 49.88L200.203 51.736C199.648 53.9973 198.688 56.0667 197.323 57.944C196 59.7787 194.251 61.2293 192.075 62.296C189.899 63.3627 187.296 63.896 184.267 63.896ZM220.039 63.896C215.9 63.896 212.508 63 209.863 61.208C207.218 59.416 205.618 56.856 205.063 53.528L212.487 51.608C212.786 53.1013 213.276 54.2747 213.959 55.128C214.684 55.9813 215.559 56.6 216.583 56.984C217.65 57.3253 218.802 57.496 220.039 57.496C221.916 57.496 223.303 57.176 224.199 56.536C225.095 55.8533 225.543 55.0213 225.543 54.04C225.543 53.0587 225.116 52.312 224.263 51.8C223.41 51.2453 222.044 50.7973 220.167 50.456L218.375 50.136C216.156 49.7093 214.13 49.1333 212.295 48.408C210.46 47.64 208.988 46.5947 207.879 45.272C206.77 43.9493 206.215 42.2427 206.215 40.152C206.215 36.9947 207.367 34.584 209.671 32.92C211.975 31.2133 215.004 30.36 218.759 30.36C222.3 30.36 225.244 31.1493 227.591 32.728C229.938 34.3067 231.474 36.376 232.199 38.936L224.711 41.24C224.37 39.6187 223.666 38.4667 222.599 37.784C221.575 37.1013 220.295 36.76 218.759 36.76C217.223 36.76 216.05 37.0373 215.239 37.592C214.428 38.104 214.023 38.8293 214.023 39.768C214.023 40.792 214.45 41.56 215.303 42.072C216.156 42.5413 217.308 42.904 218.759 43.16L220.551 43.48C222.94 43.9067 225.095 44.4827 227.015 45.208C228.978 45.8907 230.514 46.8933 231.623 48.216C232.775 49.496 233.351 51.2453 233.351 53.464C233.351 56.792 232.135 59.3733 229.703 61.208C227.314 63 224.092 63.896 220.039 63.896Z" fill="white"/>
<rect y="79" width="4" height="44" rx="2" transform="rotate(-90 0 79)" fill="white"/>
<rect x="46.8866" y="79" width="4" height="14" rx="2" transform="rotate(-90 46.8866 79)" fill="white"/>
<rect x="63.7732" y="79" width="4" height="34" rx="2" transform="rotate(-90 63.7732 79)" fill="white"/>
<rect x="168.983" y="83" width="4" height="43" rx="2" transform="rotate(90 168.983 83)" fill="white"/>
<rect x="121.653" y="83" width="4" height="45" rx="2" transform="rotate(90 121.653 83)" fill="white"/>
<rect x="230" y="75" width="4" height="75.0777" rx="2" transform="rotate(90 230 75)" fill="white"/>
<rect x="199" y="90" width="4" height="53" rx="2" transform="rotate(90 199 90)" fill="white"/>
</svg>
